<svg xmlns="http://www.w3.org/2000/svg" viewBox="0 0 529.02 527.79"><defs><style>.cls-1{fill:#fff;}</style></defs><g id="Layer_2" data-name="Layer 2"><g id="Layer_1-2" data-name="Layer 1"><path class="cls-1" d="M529,263.91c0,3.21-.06,6.43-.18,9.61H338.74l-80.42-86.23L177.9,273.52H0l1.29-13.76,3.88-41.39.93-10.13H182.86L63.54,93.61l-.33-.33,2.85-2.62L109.89,50.5l1.53-1.41.18.15L228.28,161.47V2.61l1.83-.24A262.72,262.72,0,0,1,256.67.15c.9-.06,1.83-.06,2.73-.06C261.18,0,263,0,264.75,0h.39a270.9,270.9,0,0,1,27.61,1.41l.81.09v155L410.75,43.8l.36-.33,1.41.93c3.37,2.22,6.94,4.72,11.18,7.84a264,264,0,0,1,36,32.17L461.1,86l-.57.57L333.81,208.24H523.13A263.08,263.08,0,0,1,529,263.91Z"/><path class="cls-1" d="M91.13,464.63a272.53,272.53,0,0,0,348.92,0l4.49-3.75H86.63Z"/><path class="cls-1" d="M521.39,333.27l-27.55,65.25h-458l-.6-1.08A260.15,260.15,0,0,1,9.61,336l-.75-2.71Z"/></g></g></svg>