<svg xmlns="http://www.w3.org/2000/svg" viewBox="0 0 832.73 152.57"><defs><style>.cls-1{fill:#fb3;}.cls-2{fill:#00c5ce;}.cls-3{fill:#fff;}</style></defs><g id="Layer_2" data-name="Layer 2"><g id="Layer_1-2" data-name="Layer 1"><path class="cls-1" d="M112.87,56.31c0,.68,0,1.37,0,2H72.28L55.12,40,38,58.36H0l.28-2.94.82-8.83.2-2.16H39L13.56,20l-.07-.07.6-.56,9.36-8.57.32-.3,0,0,24.9,23.94V.56L49.1.51A56.59,56.59,0,0,1,54.76,0h.59l1.14,0h.08a57.21,57.21,0,0,1,5.89.3l.17,0V33.39l25-24,.08-.08.3.2c.72.48,1.48,1,2.38,1.68A55.68,55.68,0,0,1,98.08,18l.3.33-.12.12-27,26h40.4A56.67,56.67,0,0,1,112.87,56.31Z"/><path class="cls-2" d="M19.44,99.14a58.17,58.17,0,0,0,74.45,0l1-.8H18.48Z"/><path class="cls-2" d="M111.25,71.11,105.37,85H7.65l-.13-.23A55.75,55.75,0,0,1,2.05,71.69l-.16-.58Z"/><path class="cls-3" d="M186.92,45.19c0,13.68-10.51,24.2-25,24.2H146.75V95.58H132.66V21.18h29.26C176.41,21.18,186.92,31.59,186.92,45.19Zm-14.08.19c0-6.74-4.86-11.9-12.3-11.9H146.75V57.29h13.79C168,57.29,172.84,52,172.84,45.38Z"/><path class="cls-3" d="M185.23,69.89c0-15.88,11.51-27.28,27.48-27.28S240.29,54,240.29,69.89s-11.61,27.28-27.58,27.28S185.23,85.66,185.23,69.89Zm41.07-.2c0-8.83-5.45-15-13.59-15s-13.59,6.15-13.59,15,5.56,15.18,13.59,15.18S226.3,78.62,226.3,69.69Z"/><path class="cls-3" d="M316.08,95.58H302.19V62.25a7.27,7.27,0,0,0-7.44-7.54,7.19,7.19,0,0,0-7.34,7.54V95.58H273.52V62.25a7.27,7.27,0,0,0-7.44-7.54,7.19,7.19,0,0,0-7.34,7.54V95.58H244.85V62.45c0-11.71,9.33-19.84,21.13-19.84,6.35,0,11.41,2.38,14.68,6.54,3.48-4.16,8.63-6.54,14.88-6.54,11.91,0,20.54,8.13,20.54,19.84Z"/><path class="cls-3" d="M353.77,97.17c-7.14,0-13.29-2.88-15.77-7.14h-.3a30.17,30.17,0,0,1,.2,4.46V118.4H324.11V44.19h12.8v2.38a41,41,0,0,1-.2,4.37H337c3.28-5.06,9.63-8.33,17.36-8.33,14.39,0,24.81,11.21,24.81,27.28S368.35,97.17,353.77,97.17ZM337.4,69.79c0,8.93,5.75,15.08,13.89,15.08s14-6.15,14-15.08-5.85-15.08-14-15.08S337.4,60.86,337.4,69.79Z"/><path class="cls-3" d="M406.74,42.61c7.84,0,13.89,3.37,16.57,8.13h.39a36,36,0,0,1-.19-4.56v-2H436.2V95.58H423.51V93.2c0-2.28.1-3.67.19-4.76h-.39c-3,5.36-9.33,8.73-17.17,8.73-14.68,0-25-11.21-25-27.28S392.06,42.61,406.74,42.61ZM423,69.69c0-8.83-5.85-15-14-15s-13.89,6.15-13.89,15S401,84.87,409,84.87,423,78.62,423,69.69Z"/><path class="cls-3" d="M466,42.61c12.7,0,21.92,8.13,21.92,20.43V95.58H474V62.65a8,8,0,0,0-16,0V95.58H444.13v-33C444.13,50.64,453.26,42.61,466,42.61Z"/><path class="cls-3" d="M492.44,69.89c0-15.88,11.51-27.28,27.48-27.28S547.5,54,547.5,69.89s-11.61,27.28-27.58,27.28S492.44,85.66,492.44,69.89Zm41.07-.2c0-8.83-5.45-15-13.59-15s-13.59,6.15-13.59,15,5.56,15.18,13.59,15.18S533.51,78.62,533.51,69.69Z"/><path class="cls-3" d="M597.44,95.58h-29V21.18h27.58c13.39,0,22.52,7.93,22.52,19.74a17,17,0,0,1-10.92,16.27c8.73,3.07,12.6,10.71,12.6,18.35C620.25,86.65,611,95.58,597.44,95.58ZM582.55,52.33h12.11a9.28,9.28,0,0,0,9.72-9.53c0-5.35-3.67-9.52-9.92-9.52H582.55ZM606,73.56a9.54,9.54,0,0,0-9.92-9.72h-13.5V83.28h13.3C602.2,83.28,606,79,606,73.56Z"/><path class="cls-3" d="M650.21,97.17c-16.27,0-27.58-11.51-27.58-27.28,0-16,11.41-27.28,27.38-27.28,15.08,0,25.2,11.4,25.2,27.28a20.81,20.81,0,0,1-.4,4.36H637c1.49,6.75,6.15,10.62,13.29,10.62,5.76,0,9.53-1.79,12.9-6.05l8,8.43C666,94.09,658.94,97.17,650.21,97.17ZM637,65.42h24.6c-1-6.45-5.45-10.71-11.9-10.71C643,54.71,638.4,58.78,637,65.42Z"/><path class="cls-3" d="M702.38,42.61c7.84,0,13.89,3.37,16.57,8.13h.4a33.22,33.22,0,0,1-.2-4.56v-2h12.7V95.58h-12.7V93.2c0-2.28.1-3.67.2-4.76H719c-3,5.36-9.32,8.73-17.16,8.73-14.68,0-25-11.21-25-27.28S687.7,42.61,702.38,42.61Zm16.27,27.08c0-8.83-5.85-15-14-15s-13.89,6.15-13.89,15,5.85,15.18,13.89,15.18S718.65,78.62,718.65,69.69Z"/><path class="cls-3" d="M776.88,61.16a13.77,13.77,0,0,0-12.2-6.45c-8.14,0-13.69,6-13.69,15s5.55,15.18,13.69,15.18a14,14,0,0,0,12.4-6.65l8.13,8.23c-3.77,6.16-11.21,10.72-20.53,10.72C748.61,97.17,737,85.66,737,69.89s11.7-27.28,27.68-27.28c8.93,0,15.87,3.57,20.63,10.11Z"/><path class="cls-3" d="M802.87,95.58H789V21.18h13.89V48h.3c2.57-3.47,7.14-5.35,12.5-5.35,11.7,0,17.06,8.43,17.06,18.75V95.58H818.84V62.65a8,8,0,0,0-16,0Z"/><path class="cls-2" d="M724.41,125.47c0,7-5.27,12.19-12.7,12.19H702.8v14.09h-5.64V113.33h14.55C719.14,113.33,724.41,118.51,724.41,125.47Zm-5.68,0c0-4.2-3-7.27-7.58-7.27H702.8V132.8h8.35C715.7,132.8,718.73,129.67,718.73,125.52Z"/><path class="cls-2" d="M723.84,138.53a14.06,14.06,0,1,1,14,14A13.62,13.62,0,0,1,723.84,138.53Zm22.49-.05c0-5.32-3.48-9.12-8.45-9.12s-8.45,3.8-8.45,9.12,3.53,9.12,8.45,9.12S746.33,143.76,746.33,138.48Z"/><path class="cls-2" d="M754.47,117.74a3.38,3.38,0,0,1,6.76,0,3.38,3.38,0,0,1-6.76,0Zm.61,34V125.32h5.54v26.43Z"/><path class="cls-2" d="M776.34,124.5c6.45,0,11.06,4.25,11.06,10.55v16.7h-5.53V135a5.51,5.51,0,1,0-11,0v16.8h-5.53V134.84C765.33,128.7,769.88,124.5,776.34,124.5Z"/><path class="cls-2" d="M792.47,142.58V130.13H789.6v-4.81h2.87v-6.87H798v6.87h7.69v4.81H798v11.94c0,3.53,1.9,5.17,5,5.17a5.08,5.08,0,0,0,2-.36v4.87a7.6,7.6,0,0,1-2.87.46C796,152.21,792.47,148.88,792.47,142.58Z"/><path class="cls-2" d="M819.82,152.57a13.63,13.63,0,0,1-14.09-14c0-8.14,5.89-14,14-14,7.73,0,13,5.94,13,14a11.34,11.34,0,0,1-.16,2H811.52a8,8,0,0,0,8.35,7.07A8.88,8.88,0,0,0,827.4,144l3.23,3.33A12.85,12.85,0,0,1,819.82,152.57Zm-8.3-16h15.73c-.41-4.19-3.38-7.17-7.64-7.17S812.24,132.18,811.52,136.53Z"/></g></g></svg>