<svg xmlns="http://www.w3.org/2000/svg" viewBox="0 0 1026.33 147.18"><defs><style>.cls-1{fill:#fff;}.cls-2{opacity:0.7;}</style></defs><g id="Layer_2" data-name="Layer 2"><g id="Layer_1-2" data-name="Layer 1"><path class="cls-1" d="M907.13,73.78c0,7.39-5.59,12.93-13.47,12.93h-9.45v14.93h-6V60.91h15.42C901.54,60.91,907.13,66.39,907.13,73.78Zm-6,.06c0-4.46-3.21-7.72-8-7.72h-8.86V81.55h8.86C897.9,81.55,901.11,78.23,901.11,73.84Z"/><path class="cls-1" d="M907.4,87.63a14.91,14.91,0,1,1,14.88,14.88A14.44,14.44,0,0,1,907.4,87.63Zm23.84,0c0-5.65-3.69-9.67-9-9.67s-9,4-9,9.67,3.75,9.66,9,9.66S931.24,93.17,931.24,87.58Z"/><path class="cls-1" d="M940.74,65.58a3.59,3.59,0,1,1,3.59,3.53A3.51,3.51,0,0,1,940.74,65.58Zm.65,36.06v-28h5.87v28Z"/><path class="cls-1" d="M964.8,72.75c6.84,0,11.73,4.51,11.73,11.19v17.7h-5.86V83.83a5.84,5.84,0,1,0-11.68,0v17.81h-5.87V83.72C953.12,77.2,958,72.75,964.8,72.75Z"/><path class="cls-1" d="M982.77,91.92V78.72h-3v-5.1h3V66.34h5.87v7.28h8.14v5.1h-8.14V91.38c0,3.75,2,5.48,5.32,5.48a5.47,5.47,0,0,0,2.12-.38v5.16a8,8,0,0,1-3,.49C986.47,102.13,982.77,98.6,982.77,91.92Z"/><path class="cls-1" d="M1012.64,102.51a14.45,14.45,0,0,1-14.93-14.88c0-8.64,6.24-14.88,14.82-14.88,8.21,0,13.8,6.3,13.8,14.88a14,14,0,0,1-.16,2.12h-22.33a8.48,8.48,0,0,0,8.86,7.49,9.43,9.43,0,0,0,8-3.8L1024.1,97A13.65,13.65,0,0,1,1012.64,102.51Zm-8.8-17h16.68c-.44-4.45-3.59-7.6-8.1-7.6S1004.6,80.9,1003.84,85.51Z"/><g class="cls-2"><path class="cls-1" d="M715.37,137.67h-3.43v9h-3.31V124.14H717c4.33,0,7.43,2.94,7.43,6.76a6.65,6.65,0,0,1-5.44,6.56l5.68,9.23h-3.82Zm5.65-6.74c0-2.16-1.65-3.91-4.39-3.91h-4.69v7.85h4.69C719.37,134.87,721,133,721,130.93Z"/><path class="cls-1" d="M733.41,147.18a8.25,8.25,0,0,1-.06-16.49c4.54,0,7.64,3.49,7.64,8.24a7.17,7.17,0,0,1-.09,1.18H728.54a4.69,4.69,0,0,0,4.9,4.15,5.2,5.2,0,0,0,4.42-2.11l1.9,2A7.58,7.58,0,0,1,733.41,147.18Zm-4.87-9.42h9.23a4.39,4.39,0,0,0-4.48-4.21A4.65,4.65,0,0,0,728.54,137.76Z"/><path class="cls-1" d="M747.55,137.16l2,1c1.89.9,3.34,2.08,3.34,4.45,0,2.68-2.11,4.61-5.51,4.61a5.38,5.38,0,0,1-5.59-4l2.5-1.39a3.23,3.23,0,0,0,3.18,2.65c1.3,0,2.2-.66,2.2-1.9,0-.87-.6-1.44-2-2.1l-1.78-.84c-1.89-.88-3.37-2-3.37-4.52,0-2.4,2.14-4.39,5-4.39a5.5,5.5,0,0,1,5.39,3.49l-2.32,1.33a3.22,3.22,0,0,0-3-2.14c-1.21,0-2,.66-2,1.68S746.1,136.5,747.55,137.16Z"/><path class="cls-1" d="M754.91,126.72a2,2,0,1,1,2,2A1.94,1.94,0,0,1,754.91,126.72Zm.36,20V131.17h3.25v15.52Z"/><path class="cls-1" d="M768.78,130.69c2.28,0,4.48,1,5.35,2.56h.12a8.2,8.2,0,0,1-.09-1.53v-7.58h3.22v22.55h-3v-1c0-.69,0-1.17.06-1.56h-.09a6.19,6.19,0,0,1-5.71,3c-4.64,0-7.76-3.43-7.76-8.25S764.11,130.69,768.78,130.69Zm5.5,8.21a5.06,5.06,0,1,0-10.1,0,5.06,5.06,0,1,0,10.1,0Z"/><path class="cls-1" d="M788,147.18a8.25,8.25,0,0,1-.06-16.49c4.54,0,7.64,3.49,7.64,8.24a7.17,7.17,0,0,1-.09,1.18H783.09a4.7,4.7,0,0,0,4.9,4.15,5.2,5.2,0,0,0,4.42-2.11l1.9,2A7.57,7.57,0,0,1,788,147.18Zm-4.87-9.42h9.23a4.39,4.39,0,0,0-4.48-4.21A4.66,4.66,0,0,0,783.09,137.76Z"/><path class="cls-1" d="M804,130.69c3.79,0,6.5,2.5,6.5,6.2v9.8h-3.25v-9.86a3.24,3.24,0,1,0-6.47,0v9.86h-3.25v-9.92C797.55,133.16,800.23,130.69,804,130.69Z"/><path class="cls-1" d="M825.25,135.81a4.94,4.94,0,0,0-4.3-2.26c-2.92,0-5,2.23-5,5.35s2.07,5.36,5,5.36a5,5,0,0,0,4.39-2.38l1.93,2a7.38,7.38,0,0,1-6.32,3.34,8.25,8.25,0,1,1,0-16.49,7.52,7.52,0,0,1,6.29,3.13Z"/><path class="cls-1" d="M836.14,147.18a8.25,8.25,0,0,1-.06-16.49c4.54,0,7.64,3.49,7.64,8.24a7.17,7.17,0,0,1-.09,1.18H831.27a4.69,4.69,0,0,0,4.9,4.15,5.21,5.21,0,0,0,4.42-2.11l1.89,2A7.55,7.55,0,0,1,836.14,147.18Zm-4.87-9.42h9.23a4.4,4.4,0,0,0-4.48-4.21A4.65,4.65,0,0,0,831.27,137.76Z"/><path class="cls-1" d="M850.27,137.16l2,1c1.89.9,3.34,2.08,3.34,4.45,0,2.68-2.11,4.61-5.51,4.61a5.37,5.37,0,0,1-5.59-4l2.49-1.39a3.24,3.24,0,0,0,3.19,2.65c1.3,0,2.2-.66,2.2-1.9,0-.87-.6-1.44-2-2.1l-1.77-.84c-1.9-.88-3.37-2-3.37-4.52,0-2.4,2.13-4.39,5-4.39a5.51,5.51,0,0,1,5.39,3.49l-2.32,1.33a3.23,3.23,0,0,0-3-2.14c-1.2,0-2,.66-2,1.68S848.83,136.5,850.27,137.16Z"/></g><path class="cls-1" d="M125.23,62.47c0,.76,0,1.52,0,2.28h-45l-19-20.41-19,20.41H0l.31-3.26.91-9.8.22-2.39H43.29L15,22.16,15,22.08l.68-.62L26,12l.37-.33,0,0L54,38.22V.62l.43-.06Q57.61.14,60.76,0c.21,0,.43,0,.65,0l1.26,0h.09A64.21,64.21,0,0,1,69.3.33l.19,0V37.05L97.23,10.37l.09-.08.33.22c.8.53,1.64,1.12,2.65,1.86A62.26,62.26,0,0,1,108.82,20l.33.37-.13.13L79,49.3h44.82A62.74,62.74,0,0,1,125.23,62.47Z"/><path class="cls-1" d="M21.57,110a64.52,64.52,0,0,0,82.6,0l1.06-.89H20.51Z"/><path class="cls-1" d="M123.42,78.89,116.9,94.34H8.49l-.14-.26A61.07,61.07,0,0,1,2.28,79.53l-.18-.64Z"/><path class="cls-1" d="M202.77,53c0,13.84-10.63,24.47-25.27,24.47H162.16V104H147.92V28.76H177.5C192.14,28.76,202.77,39.29,202.77,53Zm-14.24.2c0-6.82-4.91-12-12.43-12H162.16V65.26H176.1C183.62,65.26,188.53,60,188.53,53.23Z"/><path class="cls-1" d="M201.06,78c0-16,11.64-27.58,27.78-27.58S256.72,62,256.72,78,245,105.58,228.84,105.58,201.06,93.94,201.06,78Zm41.52-.2c0-8.93-5.51-15.14-13.74-15.14S215.1,68.87,215.1,77.8s5.62,15.34,13.74,15.34S242.58,86.82,242.58,77.8Z"/><path class="cls-1" d="M333.33,104h-14V70.28a7.35,7.35,0,0,0-7.52-7.62,7.27,7.27,0,0,0-7.42,7.62V104h-14V70.28a7.35,7.35,0,0,0-7.52-7.62,7.27,7.27,0,0,0-7.42,7.62V104h-14V70.48c0-11.83,9.42-20.06,21.36-20.06,6.42,0,11.53,2.41,14.84,6.62,3.51-4.21,8.73-6.62,15-6.62,12,0,20.76,8.23,20.76,20.06Z"/><path class="cls-1" d="M371.43,105.58c-7.22,0-13.44-2.91-15.94-7.22h-.3a30.89,30.89,0,0,1,.2,4.51V127H341.45V52h12.93v2.4a42.14,42.14,0,0,1-.2,4.42h.3c3.31-5.12,9.73-8.43,17.55-8.43,14.54,0,25.07,11.33,25.07,27.58S386.17,105.58,371.43,105.58ZM354.88,77.9c0,9,5.82,15.24,14,15.24s14.14-6.22,14.14-15.24-5.91-15.24-14.14-15.24S354.88,68.87,354.88,77.9Z"/><path class="cls-1" d="M425,50.42c7.92,0,14,3.41,16.74,8.23h.41a34.28,34.28,0,0,1-.2-4.62V52h12.83V104H441.93v-2.4c0-2.31.1-3.71.2-4.82h-.41c-3,5.42-9.42,8.83-17.34,8.83-14.84,0-25.27-11.33-25.27-27.58S410.14,50.42,425,50.42ZM441.42,77.8c0-8.93-5.91-15.14-14.14-15.14s-14,6.21-14,15.14,5.91,15.34,14,15.34S441.42,86.82,441.42,77.8Z"/><path class="cls-1" d="M484.84,50.42c12.84,0,22.16,8.23,22.16,20.66V104H493V70.68a8.07,8.07,0,0,0-16.14,0V104h-14V70.58C462.78,58.54,472,50.42,484.84,50.42Z"/><path class="cls-1" d="M511.61,78c0-16,11.63-27.58,27.78-27.58S567.27,62,567.27,78s-11.74,27.58-27.88,27.58S511.61,93.94,511.61,78Zm41.52-.2c0-8.93-5.52-15.14-13.74-15.14s-13.74,6.21-13.74,15.14,5.62,15.34,13.74,15.34S553.13,86.82,553.13,77.8Z"/><path class="cls-1" d="M617.75,104H588.46V28.76h27.88c13.54,0,22.77,8,22.77,20a17.15,17.15,0,0,1-11,16.44c8.82,3.11,12.73,10.83,12.73,18.56C640.81,95,631.48,104,617.75,104Zm-15-43.72h12.24a9.38,9.38,0,0,0,9.83-9.63c0-5.41-3.71-9.62-10-9.62h-12Zm23.67,21.46a9.64,9.64,0,0,0-10-9.83H602.7V91.54h13.44C622.56,91.54,626.37,87.23,626.37,81.71Z"/><path class="cls-1" d="M671.09,105.58c-16.45,0-27.88-11.64-27.88-27.58,0-16.15,11.53-27.58,27.68-27.58,15.24,0,25.47,11.53,25.47,27.58a21.29,21.29,0,0,1-.4,4.41H657.75c1.51,6.82,6.22,10.73,13.44,10.73,5.82,0,9.63-1.8,13-6.11l8.12,8.52C687,102.47,679.91,105.58,671.09,105.58ZM657.75,73.49h24.87c-1-6.52-5.51-10.83-12-10.83C663.77,62.66,659.16,66.77,657.75,73.49Z"/><path class="cls-1" d="M723.83,50.42c7.93,0,14,3.41,16.75,8.23h.4a34.28,34.28,0,0,1-.2-4.62V52h12.84V104H740.78v-2.4c0-2.31.1-3.71.2-4.82h-.4c-3,5.42-9.42,8.83-17.35,8.83C708.39,105.58,698,94.25,698,78S709,50.42,723.83,50.42ZM740.28,77.8c0-8.93-5.92-15.14-14.14-15.14s-14,6.21-14,15.14,5.92,15.34,14,15.34S740.28,86.82,740.28,77.8Z"/><path class="cls-1" d="M799.14,69.17a13.92,13.92,0,0,0-12.33-6.51c-8.23,0-13.84,6.11-13.84,15.14s5.61,15.34,13.84,15.34a14.17,14.17,0,0,0,12.53-6.72l8.22,8.33c-3.81,6.22-11.33,10.83-20.75,10.83-16.25,0-28-11.64-28-27.58s11.83-27.58,28-27.58c9,0,16,3.61,20.86,10.23Z"/><path class="cls-1" d="M825.41,104h-14V28.76h14V55.84h.3c2.61-3.51,7.22-5.42,12.64-5.42,11.83,0,17.25,8.53,17.25,19V104h-14V70.68a8.08,8.08,0,0,0-16.15,0Z"/></g></g></svg>